<?xml version="1.0" standalone="no"?>
<!DOCTYPE svg PUBLIC "-//W3C//DTD SVG 20010904//EN"
 "http://www.w3.org/TR/2001/REC-SVG-20010904/DTD/svg10.dtd">
<svg version="1.0" xmlns="http://www.w3.org/2000/svg"
 width="512.000000pt" height="512.000000pt" viewBox="0 0 512.000000 512.000000"
 preserveAspectRatio="xMidYMid meet">

<g transform="translate(0.000000,512.000000) scale(0.100000,-0.100000)"
fill="#000000" stroke="none">
<path d="M2158 4895 c-166 -34 -313 -146 -390 -299 -78 -155 3 -314 166 -324
95 -6 165 38 218 136 9 18 32 41 50 52 33 20 48 20 1103 20 1018 0 1072 -1
1104 -18 19 -10 43 -34 53 -53 17 -32 18 -97 18 -1424 0 -1360 0 -1391 -20
-1422 -41 -67 -41 -67 -386 -73 l-312 -5 -43 -30 c-64 -45 -91 -104 -87 -186
4 -77 30 -123 92 -167 l39 -27 328 -3 c277 -2 338 0 391 13 186 49 338 191
399 376 l24 74 0 1450 c0 1379 -1 1453 -18 1510 -58 188 -196 328 -387 391
-52 18 -119 19 -1165 21 -899 1 -1123 -1 -1177 -12z"/>
<path d="M625 4031 c-183 -52 -327 -191 -386 -373 l-24 -73 0 -1450 c0 -1379
1 -1453 18 -1510 59 -190 202 -333 392 -392 57 -17 121 -18 1190 -18 l1130 0
73 24 c140 46 261 146 327 271 69 133 65 30 65 1623 0 1589 4 1494 -63 1622
-41 78 -154 191 -232 232 -126 66 -67 63 -1306 62 -1034 0 -1129 -2 -1184 -18z
m2298 -424 c15 -9 35 -29 44 -44 17 -26 18 -106 18 -1428 0 -1333 -1 -1402
-18 -1428 -10 -16 -32 -37 -50 -47 -31 -19 -59 -20 -1102 -20 -1018 0 -1072 1
-1104 18 -19 10 -43 34 -53 53 -17 32 -18 97 -18 1422 0 1486 -2 1415 48 1460
11 10 33 22 48 27 16 5 508 8 1094 7 1000 -2 1068 -3 1093 -20z"/>
</g>
</svg>
